<svg xmlns="http://www.w3.org/2000/svg" xmlns:xlink="http://www.w3.org/1999/xlink" xmlns:serif="http://www.serif.com/" width="100%" height="100%" viewBox="0 0 300 300" xml:space="preserve" style="fill-rule:evenodd;clip-rule:evenodd;stroke-linejoin:round;stroke-miterlimit:2;">
    <g transform="matrix(1.4683,0,0,1.4683,-143.66,-93.0676)">
        <path d="M194.199,182.062L194.199,119.84L181.618,119.84L181.618,237.084C182.466,237.987 184.57,239.973 188.075,241.72C190.711,243.034 192.839,243.569 194.199,243.785L194.199,202.036L205.798,181.12L205.802,181.166L205.802,243.79C207.091,243.572 209.1,243.032 211.731,241.72C215.338,239.923 217.504,237.955 218.382,237.059L218.382,119.84L205.802,119.84L205.802,161.138L194.199,182.062ZM269.436,117.436C274.116,113.186 279.96,110.481 286.154,109.717L286.154,89.228L113.846,89.228L113.846,109.717C120.067,110.484 125.924,113.197 130.564,117.431L130.564,106.41L269.436,106.41L269.436,117.436Z" style="fill:rgb(101,115,138);fill-rule:nonzero;"></path>
    </g>
</svg>